<?xml version="1.0" encoding="UTF-8"?>
<svg id="Layer_2" data-name="Layer 2" xmlns="http://www.w3.org/2000/svg" viewBox="0 0 304.72 38.17">
  <defs>
    <style>
      .cls-1 {
        fill: #cdef58;
      }

      .cls-2 {
        fill: #162312;
      }
    </style>
  </defs>
  <g id="Layer_1-2" data-name="Layer 1">
    <g>
      <path class="cls-2" d="M45.58,19.9c-.66-.78-1.44-1.43-2.32-1.93-.89-.5-1.84-.89-2.84-1.18,1.17-.56,2.17-1.38,2.97-2.43.8-1.05,1.2-2.59,1.2-4.62,0-1.39-.29-2.64-.86-3.74-.56-1.1-1.37-2.03-2.4-2.78-1.03-.75-2.28-1.33-3.74-1.74-1.46-.41-3.1-.62-4.92-.62h-14.87v11.1c0,2.6,1.06,4.95,2.76,6.65,1.71,1.71,4.06,2.76,6.66,2.76v-.04h5.88c1.85,0,3.14.37,3.85,1.09.71.73,1.07,1.72,1.07,2.97s-.35,2.25-1.05,3c-.7.75-1.99,1.12-3.88,1.12h-6.51v7.7h6.72c4.57,0,8.11-.94,10.65-2.83,2.53-1.89,3.8-4.58,3.8-8.07,0-1.38-.2-2.61-.59-3.66-.39-1.05-.92-1.96-1.58-2.75ZM34.97,13.68c0,.33-.27.6-.6.6h-6.56c-.33,0-.6-.27-.6-.6v-5.11h7.16c.33,0,.6.27.6.6v4.5Z"/>
      <path class="cls-2" d="M61.65,25.24h13.16v-7.75h-13.16v-8.45h15.78V.87h-25.51v36.35h26.26v-8.17h-16.53v-3.8Z"/>
      <path class="cls-2" d="M106.47,19.1L83.63.29c-.29-.25-.48-.34-.59-.26-.11.07-.16.2-.16.37v36.83h9.15v-18.12l22.84,18.76c.29.25.48.34.59.29.11-.05.16-.18.16-.4V.87h-9.15v18.22Z"/>
      <path class="cls-2" d="M153.38,5.63c-1.78-1.64-3.85-2.92-6.2-3.82-2.35-.91-4.85-1.36-7.49-1.36s-5.08.45-7.46,1.36c-2.38.91-4.45,2.18-6.23,3.82-1.78,1.64-3.2,3.6-4.25,5.88-1.06,2.28-1.58,4.79-1.58,7.54s.53,5.26,1.58,7.54c1.05,2.28,2.47,4.25,4.25,5.9,1.78,1.66,3.86,2.94,6.23,3.85,2.37.91,4.86,1.36,7.46,1.36s5.14-.45,7.49-1.36c2.35-.91,4.42-2.19,6.2-3.85,1.78-1.66,3.2-3.63,4.25-5.9,1.05-2.28,1.57-4.79,1.57-7.54s-.53-5.25-1.57-7.54c-1.06-2.28-2.47-4.24-4.25-5.88ZM148.62,23.05c-.43,1.25-1.06,2.32-1.87,3.24-.82.91-1.82,1.63-3,2.17-1.18.53-2.53.8-4.07.8s-2.89-.27-4.07-.8c-1.18-.53-2.18-1.25-3-2.17-.82-.91-1.44-1.99-1.87-3.24-.43-1.25-.64-2.59-.64-4.01s.21-2.76.64-4.01c.43-1.25,1.05-2.32,1.87-3.24.82-.91,1.82-1.62,3-2.14,1.18-.51,2.53-.78,4.07-.78s2.89.26,4.07.78c1.18.52,2.18,1.23,3,2.14.82.91,1.44,1.99,1.87,3.24.42,1.25.64,2.59.64,4.01s-.21,2.76-.64,4.01Z"/>
      <path class="cls-2" d="M186.32,27.84c-1.28.94-3.1,1.41-5.45,1.41-1.39,0-2.64-.27-3.75-.8-1.11-.53-2.04-1.25-2.81-2.17-.77-.91-1.35-1.99-1.77-3.24-.41-1.25-.62-2.59-.62-4.01s.2-2.76.59-4.01c.39-1.25.96-2.32,1.72-3.24.75-.91,1.66-1.62,2.73-2.14,1.07-.51,2.27-.78,3.59-.78,1.14,0,2.15.12,3.02.37.87.25,1.64.58,2.3.99s1.22.87,1.69,1.39c.46.52.87,1.04,1.23,1.57l7.33-4.97c-.75-1.14-1.62-2.18-2.62-3.13-1-.94-2.14-1.77-3.42-2.46-1.28-.7-2.73-1.24-4.33-1.63-1.6-.4-3.38-.59-5.35-.59-2.42,0-4.75.45-6.98,1.36-2.23.91-4.19,2.18-5.88,3.82-1.69,1.64-3.04,3.6-4.04,5.88-1,2.28-1.49,4.79-1.49,7.54s.51,5.26,1.52,7.54c1.02,2.28,2.39,4.25,4.12,5.9,1.73,1.66,3.74,2.94,6.02,3.85,2.28.91,4.7,1.36,7.27,1.36,3.71,0,6.84-.69,9.41-2.06,2.57-1.37,4.76-3.57,6.58-6.6l-7.49-4.81c-.79,1.46-1.82,2.67-3.1,3.61h0Z"/>
      <path class="cls-2" d="M231.3,5.63c-1.78-1.64-3.85-2.92-6.2-3.82-2.35-.91-4.85-1.36-7.49-1.36s-5.09.45-7.46,1.36c-2.37.91-4.45,2.18-6.23,3.82-1.78,1.64-3.2,3.6-4.25,5.88-1.06,2.28-1.57,4.79-1.57,7.54s.52,5.26,1.57,7.54c1.05,2.28,2.47,4.25,4.25,5.9,1.78,1.66,3.86,2.94,6.23,3.85,2.37.91,4.86,1.36,7.46,1.36s5.13-.45,7.49-1.36c2.36-.91,4.42-2.19,6.2-3.85,1.78-1.66,3.2-3.63,4.25-5.9,1.05-2.28,1.57-4.79,1.57-7.54s-.52-5.25-1.57-7.54c-1.06-2.28-2.47-4.24-4.25-5.88ZM226.54,23.05c-.42,1.25-1.05,2.32-1.87,3.24-.82.91-1.82,1.63-3,2.17-1.17.53-2.53.8-4.06.8s-2.88-.27-4.06-.8c-1.18-.53-2.18-1.25-3-2.17-.82-.92-1.44-1.99-1.87-3.24-.43-1.25-.64-2.59-.64-4.01s.21-2.76.64-4.01c.42-1.25,1.05-2.32,1.87-3.24.82-.92,1.82-1.62,3-2.14,1.18-.51,2.53-.78,4.06-.78s2.89.26,4.06.78c1.18.52,2.18,1.23,3,2.14.82.91,1.44,1.99,1.87,3.24.43,1.25.64,2.59.64,4.01s-.21,2.76-.64,4.01Z"/>
      <path class="cls-2" d="M268.87,5.74c-1.66-1.57-3.6-2.77-5.83-3.61-2.23-.84-4.66-1.25-7.3-1.25h-14.07v36.35h14.07c2.64,0,5.07-.42,7.3-1.25,2.23-.83,4.17-2.04,5.83-3.61,1.65-1.57,2.95-3.47,3.88-5.72.92-2.25,1.39-4.78,1.39-7.59s-.46-5.35-1.39-7.59c-.92-2.24-2.22-4.15-3.88-5.72ZM261.65,26.29c-1.69,1.8-4.02,2.7-6.98,2.7h-3.26V9.11h3.26c2.96,0,5.28.9,6.98,2.7,1.69,1.8,2.54,4.21,2.54,7.24s-.85,5.44-2.54,7.24Z"/>
      <path class="cls-2" d="M288.2,29.05v-3.8h13.16v-7.75h-13.16v-8.45h15.77V.87h-25.5v36.35h26.25v-8.17h-16.52Z"/>
      <path class="cls-1" d="M24.71,27.4h-8.54c-.36,0-.66.3-.66.66v8.53c0,.36.3.66.66.66h8.54c.36,0,.66-.3.66-.66v-8.53c0-.36-.3-.66-.66-.66Z"/>
      <path class="cls-1" d="M14.75,19.05h-6.85c-.42,0-.76.34-.76.76v6.84c0,.42.34.76.76.76h6.85c.42,0,.76-.34.76-.76v-6.84c0-.42-.34-.76-.76-.76Z"/>
      <path class="cls-1" d="M6.38,27.41H.76c-.42,0-.76.34-.76.76v5.61c0,.42.34.76.76.76h5.61c.42,0,.76-.34.76-.76v-5.61c0-.42-.34-.76-.76-.76Z"/>
    </g>
  </g>
</svg>