<?xml version="1.0" encoding="UTF-8"?>
<svg id="Layer_2" data-name="Layer 2" xmlns="http://www.w3.org/2000/svg" viewBox="0 0 194.26 95.94">
  <defs>
    <style>
      .cls-1 {
        fill: #111;
      }
    </style>
  </defs>
  <g id="Layer_1-2" data-name="Layer 1">
    <g>
      <path class="cls-1" d="M147.39.76l8.92,12.67-9.57,13.59L128.24.76h19.15Z"/>
      <path class="cls-1" d="M194.26,67.28h-19.15l-8.93-12.67,9.58-13.59,18.5,26.26Z"/>
      <path class="cls-1" d="M194.26.76h-19.15l-46.87,66.52h19.15L194.26.76Z"/>
      <path class="cls-1" d="M35.26,23.54h-15.67v44.11h15.67V23.54Z"/>
      <path class="cls-1" d="M54.85,0H0v15.67h54.85V0Z"/>
      <path class="cls-1" d="M78.64,34.09h-15.67c0-9.05,3.19-17.45,9-23.64,5.87-6.25,13.79-9.7,22.32-9.7h26.12v15.67h-26.12c-8.92,0-15.65,7.59-15.65,17.66Z"/>
      <path class="cls-1" d="M88.8,67.28h-26.12v-15.67h26.12c8.92,0,15.65-7.53,15.65-17.52h15.67c0,9.06-3.2,17.43-9.02,23.59-5.85,6.19-13.78,9.6-22.3,9.6h0Z"/>
      <path class="cls-1" d="M0,89.89c0-3.48,2.65-6.05,6.23-6.05,1.73,0,3.3.58,4.35,1.73l-.8.8c-.97-.99-2.16-1.41-3.51-1.41-2.87,0-5.03,2.1-5.03,4.93s2.16,4.93,5.03,4.93c1.36,0,2.55-.42,3.51-1.43l.8.8c-1.05,1.15-2.62,1.75-4.36,1.75-3.57,0-6.22-2.57-6.22-6.05h0Z"/>
      <path class="cls-1" d="M19.08,89.89c0-3.46,2.65-6.05,6.25-6.05s6.23,2.57,6.23,6.05-2.67,6.05-6.23,6.05-6.25-2.58-6.25-6.05ZM30.31,89.89c0-2.84-2.12-4.93-4.98-4.93s-5.01,2.09-5.01,4.93,2.14,4.93,5.01,4.93,4.98-2.09,4.98-4.93Z"/>
      <path class="cls-1" d="M48.19,95.83l-2.72-3.82c-.31.03-.61.05-.95.05h-3.19v3.77h-1.26v-11.89h4.45c3.02,0,4.86,1.53,4.86,4.08,0,1.87-.99,3.18-2.72,3.74l2.9,4.08h-1.37ZM48.12,88.02c0-1.9-1.26-2.99-3.63-2.99h-3.16v5.96h3.16c2.38,0,3.63-1.1,3.63-2.97h0Z"/>
      <path class="cls-1" d="M67.37,88.02c0,2.53-1.83,4.06-4.86,4.06h-3.19v3.75h-1.26v-11.89h4.45c3.02,0,4.86,1.53,4.86,4.08ZM66.11,88.02c0-1.9-1.26-2.99-3.63-2.99h-3.16v5.94h3.16c2.38,0,3.63-1.09,3.63-2.95Z"/>
      <path class="cls-1" d="M75.87,89.89c0-3.46,2.65-6.05,6.25-6.05s6.23,2.57,6.23,6.05-2.67,6.05-6.23,6.05-6.25-2.58-6.25-6.05ZM87.1,89.89c0-2.84-2.12-4.93-4.98-4.93s-5.01,2.09-5.01,4.93,2.14,4.93,5.01,4.93,4.98-2.09,4.98-4.93Z"/>
      <path class="cls-1" d="M104.97,95.83l-2.72-3.82c-.31.03-.61.05-.95.05h-3.19v3.77h-1.26v-11.89h4.45c3.02,0,4.86,1.53,4.86,4.08,0,1.87-.99,3.18-2.72,3.74l2.9,4.08h-1.37ZM104.91,88.02c0-1.9-1.26-2.99-3.63-2.99h-3.16v5.96h3.16c2.38,0,3.63-1.1,3.63-2.97h0Z"/>
      <path class="cls-1" d="M124.21,92.66h-6.62l-1.43,3.18h-1.31l5.44-11.89h1.24l5.44,11.89h-1.32l-1.43-3.18h0ZM123.75,91.64l-2.85-6.39-2.85,6.39h5.71Z"/>
      <path class="cls-1" d="M139.64,85.03h-4.18v-1.09h9.61v1.09h-4.18v10.8h-1.26v-10.8Z"/>
      <path class="cls-1" d="M153.57,83.94h1.26v11.89h-1.26v-11.89Z"/>
      <path class="cls-1" d="M163.34,89.89c0-3.46,2.65-6.05,6.25-6.05s6.23,2.57,6.23,6.05-2.67,6.05-6.23,6.05-6.25-2.58-6.25-6.05ZM174.57,89.89c0-2.84-2.12-4.93-4.98-4.93s-5.01,2.09-5.01,4.93,2.14,4.93,5.01,4.93,4.98-2.09,4.98-4.93Z"/>
      <path class="cls-1" d="M194.26,83.94v11.89h-1.04l-7.64-9.65v9.65h-1.26v-11.89h1.04l7.66,9.65v-9.65h1.24Z"/>
    </g>
  </g>
</svg>